solid arm
  facet normal 0 0 -1
    outer loop
      vertex -15 -15 0
      vertex 15 15 0
      vertex 15 -15 0
    endloop
  endfacet
  facet normal 0 0 -1
    outer loop
      vertex -15 -15 0
      vertex -15 15 0
      vertex 15 15 0
    endloop
  endfacet
  facet normal 0 0 1
    outer loop
      vertex -15 -15 300
      vertex 15 -15 300
      vertex 15 15 300
    endloop
  endfacet
  facet normal 0 0 1
    outer loop
      vertex -15 -15 300
      vertex 15 15 300
      vertex -15 15 300
    endloop
  endfacet
  facet normal 0 -1 0
    outer loop
      vertex -15 -15 0
      vertex 15 -15 0
      vertex 15 -15 300
    endloop
  endfacet
  facet normal 0 -1 0
    outer loop
      vertex -15 -15 0
      vertex 15 -15 300
      vertex -15 -15 300
    endloop
  endfacet
  facet normal 1 0 0
    outer loop
      vertex 15 -15 0
      vertex 15 15 0
      vertex 15 15 300
    endloop
  endfacet
  facet normal 1 0 0
    outer loop
      vertex 15 -15 0
      vertex 15 15 300
      vertex 15 -15 300
    endloop
  endfacet
  facet normal 0 1 0
    outer loop
      vertex 15 15 0
      vertex -15 15 0
      vertex -15 15 300
    endloop
  endfacet
  facet normal 0 1 0
    outer loop
      vertex 15 15 0
      vertex -15 15 300
      vertex 15 15 300
    endloop
  endfacet
  facet normal -1 0 0
    outer loop
      vertex -15 15 0
      vertex -15 -15 0
      vertex -15 -15 300
    endloop
  endfacet
  facet normal -1 0 0
    outer loop
      vertex -15 15 0
      vertex -15 -15 300
      vertex -15 15 300
    endloop
  endfacet
endsolid arm
